<svg xmlns="http://www.w3.org/2000/svg" xmlns:xlink="http://www.w3.org/1999/xlink" viewBox="0 0 272.71 302.11"><defs><style>.cls-1{fill:#fff;}.cls-2{opacity:0.75;}.cls-26,.cls-3{fill:#6f7687;}.cls-27,.cls-28,.cls-29,.cls-30,.cls-4{fill:none;}.cls-4{stroke:#5d6982;}.cls-10,.cls-11,.cls-12,.cls-13,.cls-14,.cls-15,.cls-16,.cls-17,.cls-18,.cls-19,.cls-20,.cls-21,.cls-22,.cls-23,.cls-24,.cls-26,.cls-27,.cls-28,.cls-29,.cls-30,.cls-4,.cls-5,.cls-6,.cls-7,.cls-8,.cls-9{stroke-miterlimit:10;}.cls-5{fill:url(#linear-gradient);stroke:url(#linear-gradient-2);}.cls-6{fill:url(#linear-gradient-3);stroke:url(#linear-gradient-4);}.cls-7{fill:url(#linear-gradient-5);stroke:url(#linear-gradient-6);}.cls-8{fill:url(#linear-gradient-7);stroke:url(#linear-gradient-8);}.cls-9{fill:url(#linear-gradient-9);stroke:url(#linear-gradient-10);}.cls-10{fill:url(#linear-gradient-11);stroke:url(#linear-gradient-12);}.cls-11{fill:url(#linear-gradient-13);stroke:url(#linear-gradient-14);}.cls-12{fill:url(#linear-gradient-15);stroke:url(#linear-gradient-16);}.cls-13{fill:url(#linear-gradient-17);stroke:url(#linear-gradient-18);}.cls-14{fill:url(#linear-gradient-19);stroke:url(#linear-gradient-20);}.cls-15{fill:url(#linear-gradient-21);stroke:url(#linear-gradient-22);}.cls-16{fill:url(#linear-gradient-23);stroke:url(#linear-gradient-24);}.cls-17{fill:url(#linear-gradient-25);stroke:url(#linear-gradient-26);}.cls-18{fill:url(#linear-gradient-27);stroke:url(#linear-gradient-28);}.cls-19{fill:url(#linear-gradient-29);stroke:url(#linear-gradient-30);}.cls-20{fill:url(#linear-gradient-31);stroke:url(#linear-gradient-32);}.cls-21{fill:url(#linear-gradient-33);stroke:url(#linear-gradient-34);}.cls-22{fill:url(#linear-gradient-35);stroke:url(#linear-gradient-36);}.cls-23{fill:url(#linear-gradient-37);stroke:url(#linear-gradient-38);}.cls-24{fill:url(#linear-gradient-39);stroke:url(#linear-gradient-40);}.cls-25{opacity:0.25;}.cls-26{stroke:#6f7687;}.cls-27,.cls-28,.cls-29,.cls-30{stroke:#596784;}.cls-28{stroke-dasharray:2.04 4.07;}.cls-29{stroke-dasharray:2 4;}.cls-30{stroke-dasharray:1.99 3.99;}</style><linearGradient id="linear-gradient" x1="56.49" y1="203.46" x2="113.46" y2="203.46" gradientUnits="userSpaceOnUse"><stop offset="0" stop-color="#6f7687"/><stop offset="1" stop-color="#3c4668"/></linearGradient><linearGradient id="linear-gradient-2" x1="55.99" y1="203.46" x2="113.96" y2="203.46" gradientUnits="userSpaceOnUse"><stop offset="0.51" stop-color="#3c4668"/><stop offset="1" stop-color="#3c4668"/></linearGradient><linearGradient id="linear-gradient-3" x1="84.98" y1="195.24" x2="113.46" y2="195.24" xlink:href="#linear-gradient"/><linearGradient id="linear-gradient-4" x1="84.73" y1="195.24" x2="113.71" y2="195.24" xlink:href="#linear-gradient-2"/><linearGradient id="linear-gradient-5" x1="56.49" y1="195.24" x2="84.98" y2="195.24" xlink:href="#linear-gradient"/><linearGradient id="linear-gradient-6" x1="56.24" y1="195.24" x2="85.23" y2="195.24" xlink:href="#linear-gradient-2"/><linearGradient id="linear-gradient-7" x1="84.98" y1="219.91" x2="84.98" y2="219.91" xlink:href="#linear-gradient"/><linearGradient id="linear-gradient-8" x1="84.48" y1="219.91" x2="85.48" y2="219.91" xlink:href="#linear-gradient-2"/><linearGradient id="linear-gradient-9" x1="143.43" y1="153.28" x2="200.4" y2="153.28" xlink:href="#linear-gradient"/><linearGradient id="linear-gradient-10" x1="142.93" y1="153.28" x2="200.9" y2="153.28" xlink:href="#linear-gradient-2"/><linearGradient id="linear-gradient-11" x1="171.92" y1="145.06" x2="200.4" y2="145.06" xlink:href="#linear-gradient"/><linearGradient id="linear-gradient-12" x1="171.67" y1="145.06" x2="200.65" y2="145.06" xlink:href="#linear-gradient-2"/><linearGradient id="linear-gradient-13" x1="143.43" y1="145.06" x2="171.92" y2="145.06" xlink:href="#linear-gradient"/><linearGradient id="linear-gradient-14" x1="143.18" y1="145.06" x2="172.17" y2="145.06" xlink:href="#linear-gradient-2"/><linearGradient id="linear-gradient-15" x1="171.92" y1="169.73" x2="171.92" y2="169.73" xlink:href="#linear-gradient"/><linearGradient id="linear-gradient-16" x1="171.42" y1="169.73" x2="172.42" y2="169.73" xlink:href="#linear-gradient-2"/><linearGradient id="linear-gradient-17" x1="114.46" y1="203.5" x2="171.43" y2="203.5" xlink:href="#linear-gradient"/><linearGradient id="linear-gradient-18" x1="113.96" y1="203.5" x2="171.93" y2="203.5" xlink:href="#linear-gradient-2"/><linearGradient id="linear-gradient-19" x1="142.95" y1="195.28" x2="171.43" y2="195.28" xlink:href="#linear-gradient"/><linearGradient id="linear-gradient-20" x1="142.7" y1="195.28" x2="171.68" y2="195.28" xlink:href="#linear-gradient-2"/><linearGradient id="linear-gradient-21" x1="114.46" y1="195.28" x2="142.95" y2="195.28" xlink:href="#linear-gradient"/><linearGradient id="linear-gradient-22" x1="114.21" y1="195.28" x2="143.2" y2="195.28" xlink:href="#linear-gradient-2"/><linearGradient id="linear-gradient-23" x1="142.95" y1="219.95" x2="142.95" y2="219.95" xlink:href="#linear-gradient"/><linearGradient id="linear-gradient-24" x1="142.45" y1="219.95" x2="143.45" y2="219.95" xlink:href="#linear-gradient-2"/><linearGradient id="linear-gradient-25" x1="85.46" y1="153.31" x2="142.42" y2="153.31" xlink:href="#linear-gradient"/><linearGradient id="linear-gradient-26" x1="84.96" y1="153.31" x2="142.92" y2="153.31" xlink:href="#linear-gradient-2"/><linearGradient id="linear-gradient-27" x1="113.94" y1="145.08" x2="142.42" y2="145.08" xlink:href="#linear-gradient"/><linearGradient id="linear-gradient-28" x1="113.69" y1="145.08" x2="142.67" y2="145.08" xlink:href="#linear-gradient-2"/><linearGradient id="linear-gradient-29" x1="85.46" y1="145.08" x2="113.94" y2="145.08" xlink:href="#linear-gradient"/><linearGradient id="linear-gradient-30" x1="85.21" y1="145.08" x2="114.19" y2="145.08" xlink:href="#linear-gradient-2"/><linearGradient id="linear-gradient-31" x1="113.94" y1="169.75" x2="113.94" y2="169.75" xlink:href="#linear-gradient"/><linearGradient id="linear-gradient-32" x1="113.44" y1="169.75" x2="114.44" y2="169.75" xlink:href="#linear-gradient-2"/><linearGradient id="linear-gradient-33" x1="114.43" y1="103.09" x2="171.4" y2="103.09" xlink:href="#linear-gradient"/><linearGradient id="linear-gradient-34" x1="113.93" y1="103.09" x2="171.9" y2="103.09" xlink:href="#linear-gradient-2"/><linearGradient id="linear-gradient-35" x1="142.91" y1="94.87" x2="171.4" y2="94.87" xlink:href="#linear-gradient"/><linearGradient id="linear-gradient-36" x1="142.66" y1="94.87" x2="171.65" y2="94.87" xlink:href="#linear-gradient-2"/><linearGradient id="linear-gradient-37" x1="114.43" y1="94.87" x2="142.91" y2="94.87" xlink:href="#linear-gradient"/><linearGradient id="linear-gradient-38" x1="114.18" y1="94.87" x2="143.16" y2="94.87" xlink:href="#linear-gradient-2"/><linearGradient id="linear-gradient-39" x1="142.91" y1="119.54" x2="142.91" y2="119.54" xlink:href="#linear-gradient"/><linearGradient id="linear-gradient-40" x1="142.41" y1="119.54" x2="143.41" y2="119.54" xlink:href="#linear-gradient-2"/></defs><g id="Layer_2" data-name="Layer 2"><g id="Layer_2-2" data-name="Layer 2"><rect class="cls-1" x="0.5" width="271.71" height="301.94"/><g class="cls-2"><polygon class="cls-3" points="44.66 180.18 73.14 163.74 101.62 180.18 101.62 213.07 73.14 229.52 44.66 213.07 44.66 180.18"/><line class="cls-3" x1="73.14" y1="196.63" x2="101.62" y2="180.18"/><line class="cls-3" x1="44.65" y1="180.18" x2="73.14" y2="196.63"/><line class="cls-3" x1="73.14" y1="229.52" x2="73.14" y2="196.63"/></g><polygon class="cls-4" points="85.46 69.92 113.94 53.48 142.42 69.92 142.42 102.81 113.94 119.25 85.46 102.81 85.46 69.92"/><line class="cls-4" x1="113.94" y1="86.37" x2="142.42" y2="69.92"/><line class="cls-4" x1="85.46" y1="69.92" x2="113.94" y2="86.37"/><line class="cls-4" x1="113.94" y1="119.26" x2="113.94" y2="86.37"/><polygon class="cls-5" points="56.49 187.02 84.98 170.57 113.46 187.02 113.46 219.91 84.98 236.35 56.49 219.91 56.49 187.02"/><line class="cls-6" x1="84.98" y1="203.46" x2="113.46" y2="187.02"/><line class="cls-7" x1="56.49" y1="187.02" x2="84.98" y2="203.46"/><line class="cls-8" x1="84.98" y1="236.35" x2="84.98" y2="203.46"/><polygon class="cls-9" points="143.43 136.84 171.92 120.39 200.4 136.84 200.4 169.73 171.92 186.17 143.43 169.73 143.43 136.84"/><line class="cls-10" x1="171.92" y1="153.28" x2="200.4" y2="136.84"/><line class="cls-11" x1="143.43" y1="136.84" x2="171.92" y2="153.28"/><line class="cls-12" x1="171.92" y1="186.17" x2="171.92" y2="153.28"/><polygon class="cls-13" points="114.46 187.06 142.95 170.62 171.43 187.06 171.43 219.95 142.95 236.39 114.46 219.95 114.46 187.06"/><line class="cls-14" x1="142.95" y1="203.5" x2="171.43" y2="187.06"/><line class="cls-15" x1="114.46" y1="187.06" x2="142.95" y2="203.5"/><line class="cls-16" x1="142.95" y1="236.39" x2="142.95" y2="203.5"/><polygon class="cls-17" points="85.46 136.86 113.94 120.42 142.42 136.86 142.42 169.75 113.94 186.19 85.46 169.75 85.46 136.86"/><line class="cls-18" x1="113.94" y1="153.31" x2="142.42" y2="136.86"/><line class="cls-19" x1="85.46" y1="136.86" x2="113.94" y2="153.31"/><line class="cls-20" x1="113.94" y1="186.2" x2="113.94" y2="153.31"/><polygon class="cls-21" points="114.43 86.65 142.91 70.2 171.4 86.65 171.4 119.54 142.91 135.98 114.43 119.54 114.43 86.65"/><line class="cls-22" x1="142.91" y1="103.09" x2="171.4" y2="86.65"/><line class="cls-23" x1="114.43" y1="86.65" x2="142.91" y2="103.09"/><line class="cls-24" x1="142.91" y1="135.98" x2="142.91" y2="103.09"/><polygon class="cls-4" points="0.5 252.2 28.98 235.76 57.47 252.2 57.47 285.09 28.98 301.54 0.5 285.09 0.5 252.2"/><line class="cls-4" x1="28.98" y1="268.65" x2="57.47" y2="252.2"/><line class="cls-4" x1="0.5" y1="252.2" x2="28.98" y2="268.65"/><line class="cls-4" x1="28.98" y1="301.54" x2="28.98" y2="268.65"/><polygon class="cls-4" points="214.05 26.97 242.53 10.53 271.02 26.97 271.02 59.86 242.53 76.3 214.05 59.86 214.05 26.97"/><line class="cls-4" x1="242.53" y1="43.41" x2="271.02" y2="26.97"/><line class="cls-4" x1="214.05" y1="26.97" x2="242.53" y2="43.41"/><line class="cls-4" x1="242.53" y1="76.3" x2="242.53" y2="43.41"/><polygon class="cls-4" points="202.43 237.85 230.92 221.4 259.4 237.85 259.4 270.74 230.92 287.18 202.43 270.74 202.43 237.85"/><line class="cls-4" x1="230.92" y1="254.29" x2="259.4" y2="237.85"/><line class="cls-4" x1="202.43" y1="237.85" x2="230.92" y2="254.29"/><line class="cls-4" x1="230.92" y1="287.18" x2="230.92" y2="254.29"/><g class="cls-25"><polygon class="cls-3" points="151.95 132 180.43 115.56 208.91 132 208.91 164.89 180.43 181.34 151.95 164.89 151.95 132"/><line class="cls-3" x1="180.43" y1="148.45" x2="208.91" y2="132"/><line class="cls-3" x1="151.95" y1="132" x2="180.43" y2="148.45"/><line class="cls-3" x1="180.43" y1="181.34" x2="180.43" y2="148.45"/></g><g class="cls-2"><polygon class="cls-26" points="207.68 23.29 236.16 6.85 264.64 23.29 264.64 56.18 236.16 72.63 207.68 56.18 207.68 23.29"/><line class="cls-26" x1="236.16" y1="39.74" x2="264.64" y2="23.29"/><line class="cls-26" x1="207.68" y1="23.29" x2="236.16" y2="39.74"/><line class="cls-26" x1="236.16" y1="72.62" x2="236.16" y2="39.74"/></g><g class="cls-2"><polygon class="cls-26" points="215.25 245.25 243.73 228.8 272.21 245.25 272.21 278.13 243.73 294.58 215.25 278.13 215.25 245.25"/><line class="cls-26" x1="243.73" y1="261.69" x2="272.21" y2="245.25"/><line class="cls-26" x1="215.25" y1="245.25" x2="243.73" y2="261.69"/><line class="cls-26" x1="243.73" y1="294.58" x2="243.73" y2="261.69"/></g></g><g id="Layer_3" data-name="Layer 3"><line class="cls-27" x1="227.06" y1="55.49" x2="226.19" y2="55.99"/><line class="cls-28" x1="222.66" y1="58.02" x2="176.8" y2="84.5"/><line class="cls-27" x1="175.04" y1="85.52" x2="174.17" y2="86.02"/><line class="cls-29" x1="199.41" y1="235.3" x2="159.69" y2="210.88"/><line class="cls-27" x1="61.2" y1="252.2" x2="62.06" y2="251.69"/><line class="cls-30" x1="65.5" y1="249.67" x2="125.6" y2="214.28"/><line class="cls-27" x1="127.32" y1="213.27" x2="128.18" y2="212.76"/></g></g></svg>