<svg width="546" height="165" viewBox="0 0 546 165" fill="none" xmlns="http://www.w3.org/2000/svg">
<path d="M115.07 82.3604C115.07 101.333 109.231 118.415 99.9085 130.7C90.5873 142.983 77.8927 150.36 64.0698 150.36C50.2469 150.36 37.5523 142.983 28.2311 130.7C18.9086 118.415 13.0698 101.333 13.0698 82.3604C13.0698 63.3878 18.9086 46.3055 28.2311 34.0206C37.5523 21.7375 50.2469 14.3604 64.0698 14.3604C77.8927 14.3604 90.5873 21.7375 99.9085 34.0206C109.231 46.3055 115.07 63.3878 115.07 82.3604Z" fill="#F89C25" stroke="white" stroke-width="5"/>
<path d="M2.72419 110C-3.49964 67.7047 3.60283 -12.8961 84 3.06159" stroke="#C4C4C4"/>
<path d="M90.2605 5.01114C90.4903 4.85797 90.5524 4.54753 90.3992 4.31777L87.903 0.573543C87.7499 0.343778 87.4394 0.281691 87.2097 0.434868C86.9799 0.588044 86.9178 0.898479 87.071 1.12824L89.2898 4.45644L85.9616 6.67524C85.7318 6.82842 85.6697 7.13886 85.8229 7.36862C85.9761 7.59838 86.2865 7.66047 86.5163 7.5073L90.2605 5.01114ZM84.3717 3.98272L89.8851 5.08541L90.0812 4.10483L84.5678 3.00214L84.3717 3.98272Z" fill="#C4C4C4"/>
<path d="M125.276 55C131.5 97.2953 124.397 177.896 44 161.938" stroke="#C4C4C4"/>
<path d="M37.8791 160.209C37.6494 160.362 37.5873 160.673 37.7405 160.902L40.2366 164.647C40.3898 164.876 40.7002 164.939 40.93 164.785C41.1597 164.632 41.2218 164.322 41.0687 164.092L38.8499 160.764L42.1781 158.545C42.4078 158.392 42.4699 158.081 42.3167 157.852C42.1636 157.622 41.8531 157.56 41.6234 157.713L37.8791 160.209ZM43.768 161.237L38.2545 160.135L38.0584 161.115L43.5719 162.218L43.768 161.237Z" fill="#C4C4C4"/>
<path d="M410 26H410.203H410.406H410.611H410.816H411.022H411.23H411.438H411.647H411.857H412.068H412.279H412.492H412.705H412.92H413.135H413.351H413.568H413.786H414.004H414.224H414.444H414.665H414.887H415.11H415.333H415.558H415.783H416.009H416.236H416.463H416.692H416.921H417.151H417.381H417.613H417.845H418.078H418.312H418.546H418.781H419.017H419.254H419.491H419.729H419.968H420.207H420.447H420.688H420.93H421.172H421.415H421.658H421.903H422.148H422.393H422.639H422.886H423.134H423.382H423.631H423.88H424.13H424.381H424.632H424.884H425.136H425.389H425.643H425.897H426.152H426.407H426.663H426.92H427.177H427.434H427.692H427.951H428.21H428.47H428.73H428.991H429.253H429.514H429.777H430.04H430.303H430.567H430.831H431.096H431.361H431.627H431.893H432.16H432.427H432.695H432.963H433.231H433.5H433.769H434.039H434.309H434.58H434.851H435.122H435.394H435.666H435.939H436.211H436.485H436.758H437.032H437.307H437.582H437.857H438.132H438.408H438.684H438.961H439.237H439.515H439.792H440.07H440.348H440.626H440.905H441.184H441.463H441.742H442.022H442.302H442.582H442.863H443.143H443.425H443.706H443.987H444.269H444.551H444.833H445.115H445.398H445.681H445.964H446.247H446.53H446.814H447.098H447.382H447.666H447.95H448.234H448.519H448.804H449.088H449.373H449.659H449.944H450.229H450.515H450.8H451.086H451.372H451.658H451.943H452.23H452.516H452.802H453.088H453.374H453.661H453.947H454.234H454.52H454.807H455.094H455.38H455.667H455.954H456.24H456.527H456.814H457.1H457.387H457.674H457.96H458.247H458.534H458.82H459.107H459.393H459.679H459.966H460.252H460.538H460.825H461.111H461.397H461.683H461.968H462.254H462.54H462.825H463.111H463.396H463.681H463.966H464.251H464.536H464.82H465.105H465.389H465.673H465.957H466.241H466.525H466.808H467.091H467.374H467.657H467.94H468.222H468.505H468.787H469.068H469.35H469.631H469.913H470.193H470.474H470.754H471.034H471.314H471.594H471.873H472.152H472.431H472.709H472.987H473.265H473.543H473.82H474.097H474.374H474.65H474.926H475.201H475.477H475.751H476.026H476.3H476.574H476.847H477.121H477.393H477.666H477.938H478.209H478.48H478.751H479.021H479.291H479.561H479.83H480.098H480.366H480.634H480.901H481.168H481.435H481.701H481.966H482.231H482.496H482.76H483.023H483.286H483.549H483.811H484.072H484.333H484.594H484.854H485.113H485.372H485.63H485.888H486.146H486.402H486.658H486.914H487.169H487.423H487.677H487.93H488.183H488.435H488.687H488.938H489.188H489.437H489.686H489.935H490.183H490.43H490.676H490.922H491.167H491.412H491.655H491.899H492.141H492.383H492.624H492.864H493.104H493.343H493.581H493.819H494.056H494.292H494.527H494.762H494.996H495.229H495.462H495.693H495.924H496.155H496.384H496.613H496.841H497.068H497.294H497.519H497.744H497.968H498.191H498.413H498.635H498.855H499.075H499.294H499.512H499.729H499.946H500.161H500.376H500.59H500.803H501.015H501.226H501.436H501.646H501.854H502.062H502.268H502.474H502.679H502.883H503.086H503.288H503.489H503.689H503.888H504.086H504.284H504.48H504.675H504.87H505.063H505.255H505.447H505.637H505.827H506.015H506.202H506.389H506.574H506.758H506.942H507.124H507.305H507.485H507.664H507.842H508.019H508.195H508.37H508.543H508.716H508.887H509.058H509.227H509.395H509.562H509.728H509.893H510.057H510.22H510.381H510.541H510.701H510.859H511.015H511.171H511.326H511.479H511.631H511.782H511.932H512.08H512.228H512.374H512.519H512.663H512.805H512.946H513.086H513.225H513.363H513.499H513.634H513.768H513.9H514.032H514.162H514.29H514.418H514.544H514.669H514.792H514.915H515.036H515.155H515.273H515.39H515.506H515.62H515.733H515.845H515.955H516.064H516.172H516.278H516.382H516.486H516.588H516.688H516.788H516.886H516.982H517.077H517.171H517.263H517.354H517.443H517.531H517.617H517.702H517.786H517.868H517.948H518.028H518.105H518.181H518.256H518.329H518.401H518.471H518.54H518.607H518.614C535.29 52.808 543.131 73.4998 543.001 93.9834C542.872 114.477 534.763 135.174 518.591 162H518.52H518.445H518.368H518.29H518.21H518.128H518.044H517.959H517.872H517.783H517.692H517.6H517.506H517.41H517.313H517.214H517.114H517.011H516.907H516.802H516.695H516.586H516.476H516.364H516.25H516.135H516.018H515.9H515.78H515.658H515.535H515.41H515.284H515.157H515.027H514.897H514.764H514.63H514.495H514.358H514.22H514.08H513.939H513.796H513.652H513.507H513.36H513.211H513.061H512.91H512.757H512.603H512.447H512.29H512.132H511.972H511.811H511.648H511.484H511.319H511.152H510.984H510.815H510.645H510.473H510.299H510.125H509.949H509.772H509.593H509.414H509.233H509.051H508.867H508.682H508.496H508.309H508.121H507.931H507.74H507.548H507.355H507.16H506.964H506.767H506.569H506.37H506.17H505.968H505.766H505.562H505.357H505.151H504.944H504.735H504.526H504.315H504.104H503.891H503.677H503.463H503.247H503.03H502.812H502.593H502.373H502.152H501.93H501.706H501.482H501.257H501.031H500.804H500.576H500.347H500.117H499.886H499.654H499.421H499.187H498.953H498.717H498.48H498.243H498.005H497.765H497.525H497.284H497.042H496.8H496.556H496.312H496.066H495.82H495.573H495.325H495.077H494.827H494.577H494.326H494.074H493.822H493.568H493.314H493.059H492.804H492.547H492.29H492.032H491.774H491.515H491.255H490.994H490.732H490.47H490.208H489.944H489.68H489.415H489.15H488.884H488.617H488.35H488.082H487.813H487.544H487.274H487.004H486.733H486.461H486.189H485.916H485.643H485.369H485.094H484.82H484.544H484.268H483.992H483.714H483.437H483.159H482.88H482.601H482.322H482.042H481.761H481.48H481.199H480.917H480.635H480.352H480.069H479.786H479.502H479.217H478.933H478.648H478.362H478.076H477.79H477.504H477.217H476.929H476.642H476.354H476.065H475.777H475.488H475.199H474.909H474.619H474.329H474.039H473.748H473.458H473.166H472.875H472.583H472.292H471.999H471.707H471.415H471.122H470.829H470.536H470.243H469.949H469.655H469.362H469.068H468.774H468.479H468.185H467.89H467.596H467.301H467.006H466.711H466.416H466.121H465.826H465.531H465.235H464.94H464.644H464.349H464.053H463.758H463.462H463.167H462.871H462.575H462.28H461.984H461.689H461.393H461.097H460.802H460.507H460.211H459.916H459.621H459.325H459.03H458.735H458.44H458.146H457.851H457.556H457.262H456.968H456.673H456.379H456.085H455.792H455.498H455.205H454.912H454.619H454.326H454.033H453.741H453.449H453.157H452.865H452.573H452.282H451.991H451.7H451.41H451.12H450.83H450.54H450.251H449.962H449.673H449.385H449.096H448.809H448.521H448.234H447.947H447.661H447.375H447.089H446.804H446.519H446.235H445.95H445.667H445.383H445.101H444.818H444.536H444.255H443.973H443.693H443.413H443.133H442.853H442.575H442.296H442.019H441.741H441.465H441.188H440.913H440.637H440.363H440.089H439.815H439.542H439.269H438.998H438.726H438.456H438.186H437.916H437.647H437.379H437.111H436.844H436.578H436.312H436.047H435.782H435.519H435.256H434.993H434.731H434.47H434.21H433.95H433.691H433.433H433.176H432.919H432.663H432.408H432.153H431.9H431.647H431.394H431.143H430.892H430.643H430.394H430.145H429.898H429.652H429.406H429.161H428.917H428.674H428.431H428.19H427.949H427.71H427.471H427.233H426.996H426.76H426.525H426.291H426.057H425.825H425.594H425.363H425.134H424.905H424.677H424.451H424.225H424.001H423.777H423.555H423.333H423.112H422.893H422.674H422.457H422.241H422.025H421.811H421.598H421.386H421.175H420.965H420.756H420.548H420.342H420.136H419.932H419.728H419.526H419.325H419.126H418.927H418.73H418.533H418.338H418.144H417.952H417.76H417.57H417.381H417.193H417.006H416.821H416.637H416.454H416.272H416.092H415.913H415.735H415.559H415.384H415.21H415.037H414.866H414.696H414.527H414.36H414.194H414.03H413.867H413.705H413.544H413.385H413.228H413.071H412.916H412.763H412.611H412.46H412.311H412.163H412.017H411.872H411.729H411.587H411.446H411.307H411.17H411.034H410.899H410.766H410.635H410.505H410.376H410.249H410.124H410C405.26 162 397.758 160.065 388.999 156.319C380.313 152.604 370.638 147.215 361.61 140.551C343.397 127.109 328.5 109.009 328.5 89.5C328.5 69.8564 340.197 54.0351 356.465 43.0068C372.748 31.9691 393.261 26 410 26Z" fill="#F89C25" stroke="white" stroke-width="5"/>
<path d="M287.354 94.3536C287.549 94.1583 287.549 93.8417 287.354 93.6465L284.172 90.4645C283.976 90.2692 283.66 90.2692 283.464 90.4645C283.269 90.6597 283.269 90.9763 283.464 91.1716L286.293 94L283.464 96.8284C283.269 97.0237 283.269 97.3403 283.464 97.5355C283.66 97.7308 283.976 97.7308 284.172 97.5355L287.354 94.3536ZM185 94.5L287 94.5L287 93.5L185 93.5L185 94.5Z" fill="#C4C4C4"/>
</svg>
