<svg xmlns="http://www.w3.org/2000/svg" viewBox="0 0 980.9 517.82"><defs><style>.cls-1,.cls-5{fill:#93accb;}.cls-1{opacity:0.2;}.cls-2{fill:#738096;}.cls-3{fill:#8d96a5;}.cls-4{fill:#595f6e;}.cls-6{fill:#a4abbd;}.cls-7{fill:#6f7788;}.cls-8{fill:#707787;stroke:#707787;stroke-miterlimit:10;stroke-width:0.67px;}.cls-9{fill:#7e8591;}</style></defs><g id="Layer_2" data-name="Layer 2"><g id="bus"><path class="cls-1" d="M381.85,73.1c0,49.43,0,84.51-189.36,89.5C88,165.35,0,78.1,0,28.68S87.82,21.92,190.92,4.41C293.59-13,381.85,23.68,381.85,73.1Z"/><path class="cls-2" d="M79.61,106.54H89.77a0,0,0,0,1,0,0v5.38a0,0,0,0,1,0,0H79.61a2.69,2.69,0,0,1-2.69-2.69v0A2.69,2.69,0,0,1,79.61,106.54Z"/><path class="cls-3" d="M338,115.62a5.11,5.11,0,0,1-5.15,4.59l-245.2-2.08a6.48,6.48,0,0,1-6.35-7.44q1-6.42,2.29-12.49.87-4.1,1.9-8,.52-2.09,1.11-4.11,1.16-4.11,2.47-8c.47-1.41,1-2.8,1.45-4.17a145.08,145.08,0,0,1,14.58-29.53l0,0a12.53,12.53,0,0,1,8-5.44c41.54-8.36,78.38-7.65,111.72-.21a38.49,38.49,0,0,1,4.5,1.27,43.16,43.16,0,0,1,5.53,2.33l40.35,20.28.48.24a27.61,27.61,0,0,0,4.79,1.86L323,78.51a16.87,16.87,0,0,1,9.52,7A16.24,16.24,0,0,1,334,88.35,58.77,58.77,0,0,1,337,97.62,56.31,56.31,0,0,1,338,115.62Z"/><circle class="cls-4" cx="117.72" cy="111.93" r="20.98"/><circle class="cls-4" cx="293.59" cy="111.93" r="20.98"/><path class="cls-5" d="M206,49v21a3,3,0,0,0,2.9,3l51.42,1a3,3,0,0,0,2.17-5c-9.26-9.18-27.58-16.74-52.84-22.77A3,3,0,0,0,206,49Z"/><path class="cls-5" d="M123.79,49l9.48,21.3a6.3,6.3,0,0,0,.69,1.21,3.54,3.54,0,0,0,2.66,1.57l55.87-.59a2.84,2.84,0,0,0,2.75-3V46.92A2.89,2.89,0,0,0,192.85,44c-14-1.81-46.36-.48-66.63,1.51A2.93,2.93,0,0,0,123.79,49Z"/><circle class="cls-6" cx="293.59" cy="111.93" r="12.57"/><circle class="cls-6" cx="117.72" cy="111.93" r="12.57"/><path class="cls-2" d="M337,97.62H323.44a4.14,4.14,0,0,1-3.71-2.3l-1.91-3.81a3.94,3.94,0,0,1-.43-2.06,4.15,4.15,0,0,1,4.15-4h11A16.24,16.24,0,0,1,334,88.35c.15.37.3.73.43,1.1A58,58,0,0,1,337,97.62Z"/><path class="cls-7" d="M334.46,89.45H317.39a4.15,4.15,0,0,1,4.15-4h11A16.24,16.24,0,0,1,334,88.35C334.18,88.72,334.33,89.08,334.46,89.45Z"/><path class="cls-5" d="M107.28,45.77a168.54,168.54,0,0,1-13.4,27.56,1,1,0,0,1-.89.55H90.54a144.58,144.58,0,0,1,14.59-29.53h1.26A1,1,0,0,1,107.28,45.77Z"/><path class="cls-5" d="M275.25,62.55h-1.48a7.71,7.71,0,0,1-3.43-.8,328.83,328.83,0,0,1-42.89-21.1.38.38,0,0,1,.17-.71h1.74a43.16,43.16,0,0,1,5.53,2.33Z"/><path class="cls-7" d="M272.76,69.71l-.3,8.76,5.83-2.26a2.08,2.08,0,0,0,.14-3.83Z"/><path class="cls-2" d="M94,81.18v5.87a3.13,3.13,0,0,1-3.13,3.13h-5.4q.52-2.09,1.11-4.11,1.16-4.11,2.47-8h1.82A3.13,3.13,0,0,1,94,81.18Z"/><path class="cls-1" d="M547.09,453.23c-27,48.21-117.12,67.49-224.62,64.24-134.69-4.07-166.21-35.3-166.21-84.74s70.57-140.27,209.23-84.63C444.93,380,563.8,423.42,547.09,453.23Z"/><path class="cls-2" d="M241.75,441.89H255.5a0,0,0,0,1,0,0v9.69a0,0,0,0,1,0,0H241.75a3.47,3.47,0,0,1-3.47-3.47v-2.74A3.47,3.47,0,0,1,241.75,441.89Z"/><path class="cls-2" d="M230.91,459h11.38a0,0,0,0,1,0,0V466a0,0,0,0,1,0,0H230.91a3.54,3.54,0,0,1-3.54-3.54v0a3.54,3.54,0,0,1,3.54-3.54Z"/><circle class="cls-4" cx="275.24" cy="468.46" r="28.35"/><circle class="cls-2" cx="385.43" cy="377.56" r="6.45"/><circle class="cls-4" cx="409.43" cy="468.46" r="28.35"/><rect class="cls-3" x="378.55" y="379.32" width="9.44" height="58.53" transform="translate(-143.49 217.91) rotate(-26.93)"/><circle class="cls-6" cx="275.24" cy="468.19" r="16.89"/><path class="cls-3" d="M374.84,457.45l.1,14.33-63.07-.91H305s-11.14.09-16.65,0c-6.67-.1-12.85.1-19.52,0-9.83-.14-19.66.14-29.48,0,3.62-7.81,7.49-16.42,11.54-24l7-13.09,8.48-16.26a3.86,3.86,0,0,1,3.17-1.66h65.76a1.92,1.92,0,0,1,1.92,1.92v3.29a1.9,1.9,0,0,1-1.22,1.79c-12.65,4.54-17.37,31.22-.13,34.61Z"/><rect class="cls-3" x="364.21" y="369.27" width="23.6" height="16.59" rx="7.31"/><path class="cls-7" d="M312.18,466.65c0,.48,0,1,0,1.45a2.94,2.94,0,0,1-2.94,2.77H235.4a2.37,2.37,0,0,1-2.37-2.33c0-.25,0-.5,0-.76,0-.61,0-1.21,0-1.82.69-13.93,12.65-26.9,24.8-32.2a35.58,35.58,0,0,1,14.35-3C292,430.77,312.18,446.83,312.18,466.65Z"/><circle class="cls-7" cx="364.84" cy="384" r="6.26"/><path class="cls-7" d="M333.59,410l-57.73-6.33A1.35,1.35,0,0,0,274.5,405v10.86h60.44v-4.52A1.35,1.35,0,0,0,333.59,410Z"/><path class="cls-3" d="M400.73,432.54l19.64,1.6c-7.74-16.26-22-31.84-40.14-42l20.5,40.36"/><circle class="cls-6" cx="409.43" cy="468.46" r="16.89"/><path class="cls-7" d="M438.31,455h-36.5a6,6,0,0,0-5.37,3.29l-5.34,10.38a5.65,5.65,0,0,1-5,3.07H375a2.59,2.59,0,0,1-2.6-2.52c0-.27,0-.53,0-.8a37.09,37.09,0,0,1,69.05-18.82A3.58,3.58,0,0,1,438.31,455Z"/><path class="cls-1" d="M978.51,202.78c20.15,48.93-89.74,81.22-222.17,90.39C504.87,310.57,520,217.76,520,167.84s118.31-21.79,236.3-55.44C908.12,69.1,959.49,156.63,978.51,202.78Z"/><path class="cls-3" d="M913.56,308.77H657.22a138.72,138.72,0,0,1-23.38-2l-41.49-7.13a7.23,7.23,0,0,1-6-7.13V211.24a8,8,0,0,1,8-8h318a8,8,0,0,1,8,8v90.82A6.7,6.7,0,0,1,913.56,308.77Z"/><circle class="cls-4" cx="679.84" cy="301.16" r="21.39"/><circle class="cls-4" cx="818.92" cy="299.71" r="21.39"/><circle class="cls-6" cx="818.92" cy="299.71" r="12.35"/><circle class="cls-6" cx="679.84" cy="301.16" r="12.35"/><rect class="cls-5" x="597.95" y="217.04" width="50.4" height="50.4" rx="9.13"/><rect class="cls-5" x="658.45" y="217.04" width="50.4" height="50.4" rx="9.13"/><rect class="cls-5" x="791.92" y="217.04" width="50.4" height="50.4" rx="9.13"/><path class="cls-5" d="M919.24,217h1a0,0,0,0,1,0,0v61.27a0,0,0,0,1,0,0h-1a4,4,0,0,1-4-4V221.09A4,4,0,0,1,919.24,217Z"/><path class="cls-8" d="M920.54,282.21h0a.73.73,0,0,1,.73.73v7.89a.73.73,0,0,1-.73.73h0a2.81,2.81,0,0,1-2.81-2.81V285a2.81,2.81,0,0,1,2.81-2.81Z"/><path class="cls-7" d="M730.28,217h40.21a7.09,7.09,0,0,1,7.09,7.09v84.64a0,0,0,0,1,0,0H723.19a0,0,0,0,1,0,0V224.13A7.09,7.09,0,0,1,730.28,217Z"/><path class="cls-7" d="M862.73,217h36.09a7.09,7.09,0,0,1,7.09,7.09v84.64a0,0,0,0,1,0,0H855.64a0,0,0,0,1,0,0V224.13a7.09,7.09,0,0,1,7.09-7.09Z"/><rect class="cls-5" x="860.63" y="222.12" width="40.54" height="81.58" rx="5.07"/><rect class="cls-5" x="728.45" y="222.12" width="43.87" height="81.58" rx="5.07"/><path class="cls-9" d="M658.86,192.75H874.3a10.51,10.51,0,0,1,10.51,10.51v0a0,0,0,0,1,0,0H648.34a0,0,0,0,1,0,0v0a10.51,10.51,0,0,1,10.51-10.51Z"/></g></g></svg>