<svg xmlns="http://www.w3.org/2000/svg" viewBox="0 0 204.68 294.11"><defs><style>.cls-1,.cls-6{fill:#221f20;}.cls-2,.cls-7{fill:#b6a47d;stroke:#b6a47d;}.cls-2,.cls-3,.cls-6,.cls-7,.cls-9{stroke-miterlimit:10;}.cls-2{opacity:0.2;}.cls-3{fill:#95814f;stroke:#95814f;stroke-width:1.05px;}.cls-4{fill:#7a8293;}.cls-5{fill:#595f6e;}.cls-6,.cls-9{stroke:#221f20;}.cls-8{fill:#707787;}.cls-9{fill:none;}.cls-10{fill:#7c8394;}</style></defs><g id="Layer_2" data-name="Layer 2"><g id="lopende_man" data-name="lopende man"><path class="cls-1" d="M76.2,127.48l.94,2.18s1.25.47,3.4,1.09v-2.69A35.52,35.52,0,0,1,76.2,127.48Z"/></g><g id="bg_person_2" data-name="bg person 2"><path class="cls-2" d="M182.71,157.16a73.56,73.56,0,0,0-2.5,26.24c7.4,89.49-18.07,121.35-84.44,106.85-138.19-30.18-88.62-70-77.57-120C38.26,79.48-13.85,32.1,98.56,8.72,203-13,227.71-.6,182.71,157.16Z"/></g><g id="person_2_final" data-name="person 2 final"><path class="cls-3" d="M118.51,86.91c1-.62,1.92-.84,2.51,0L120,94h0l.29,1c1.45-.92,7.32-1.77,9.57-1l-.05-2.26a23.44,23.44,0,0,1,.79-6.56l.54-2,.81-2.86c-2.83-.16-5.93-4.57-5.93-4.57-1.28,1.08,3-8-4.92-6.32a1.64,1.64,0,0,1-2-.77c-.67-1.21-5,.38-5.9-.26a2,2,0,0,0-1.63-.4C95.59,70.45,107.23,95,118.51,86.91Z"/><path class="cls-4" d="M54.89,243.92l14.66-66.16a7.52,7.52,0,0,1,4.9-5.49l31.87-10.94h31.15c7.59,15.46,6.13,25.73-4.62,28.47-6.91,1.76-11.19,3.7-19.22,2.56a24.26,24.26,0,0,1-3.69-1.51c-8.08-5.84-19.19-9.28-29-6.34L60,243.92Z"/><path class="cls-5" d="M69.27,177.3a7.74,7.74,0,0,1,4.83-4.91l32.22-11.06-40.45-2.59A7,7,0,0,0,59,162.83L30,226.25l5.36,2.81Z"/><path class="cls-6" d="M59.38,243.92H54.05a1.68,1.68,0,0,0-.45.06,10.63,10.63,0,0,0-6.83,5.89,1.34,1.34,0,0,0,1.2,1.92H59.38a1.32,1.32,0,0,0,1.32-1.32v-5.23A1.32,1.32,0,0,0,59.38,243.92Z"/><path class="cls-6" d="M35,228.81l-4.59-2.72a2.09,2.09,0,0,0-.41-.17,10.64,10.64,0,0,0-8.88,1.59,1.35,1.35,0,0,0,.05,2.27L31,235.59a1.32,1.32,0,0,0,1.81-.47l2.67-4.5A1.32,1.32,0,0,0,35,228.81Z"/><path class="cls-7" d="M89.76,191.76c-14.5,10.79-7.6,54.89,9.85,61.43,5.18,1.94,6.84-1.09,20.41-1.53,19.54-.64,23.21,5.39,31.81,2.32,16.79-6,19.94-35.16,20.48-40.11.56-5.18,3.29-30.47-7.74-35.89-9.39-4.62-17.53,10.72-41.45,13.91C103.93,194.45,97.27,186.16,89.76,191.76Z"/><path class="cls-8" d="M106.32,161.33c5.56-11.39,3.54-27.54-.39-44.12a12.16,12.16,0,0,1,2.37-10.68c.18-.2.36-.4.55-.59l9-8.37a12.52,12.52,0,0,1,9-3.8h0a8.06,8.06,0,0,1,6,2.67l5.69,6.32A12.53,12.53,0,0,1,141.7,112a4.34,4.34,0,0,1-.26,1.12c-6.14,16.2-8.76,34.06-4,48.21Z"/><path class="cls-1" d="M113.53,68.78a9.91,9.91,0,0,0-1.16-.34.58.58,0,0,0-.61.8l1.26,3.1a1,1,0,0,1-.94,1.38c-3.23-.08-10.42-.72-10.28-1.31l1.17-6.5a1.82,1.82,0,0,1,.16-.5c2.74-5.92,9.21-8.65,17.33-8.33a17.06,17.06,0,0,1,15.11,11.43c1.31,4.12.36,9.43-.21,11.87a1.75,1.75,0,0,0,.93,2c9.07,4.13,15.9,9.48,18.93,16.91a3.24,3.24,0,0,1,.33,4.27L152.92,107a3.24,3.24,0,0,1-5.38-.33L134.18,85a1.81,1.81,0,0,0-1.2-.48l-3.54,0c-.51,0-4.32,1-4.65.59C122.21,79.41,120.79,73.18,113.53,68.78Z"/><line class="cls-9" x1="77.43" y1="129.24" x2="62.3" y2="113.52"/><path class="cls-10" d="M80,127.72v3c11.75,3.39,48.22,9.89,61.69-21-.66-6-4.76-9-8-12.33-2.12-2.37-4.48-3.85-7.14-3.53-1.24.15-2.28.88-2.27,2.13C124.55,118.43,107.46,127.19,80,127.72Z"/></g></g></svg>